<svg xmlns="http://www.w3.org/2000/svg" viewBox="0 0 896 200" role="img" aria-label="BuildMate">
  <g transform="scale(3.12500)"><rect width="64" height="64" rx="12" fill="#1b1915"/><path d="M24 26 C24 18 40 18 40 26" fill="none" stroke="#ece7da" stroke-width="3.2" stroke-linecap="round"/><rect x="12" y="26" width="40" height="7" rx="2" fill="#c85f1c"/><rect x="12" y="32" width="40" height="19" rx="3" fill="#e8782f"/><rect x="29.5" y="35" width="5" height="8" rx="1.2" fill="#1b1915"/></g>
  <g transform="translate(223.815 148.000) scale(0.13445 -0.13445)"><path d="M46.0 0V116H138.0V584H46.0V700H406.0Q470.0 700 517.5 678.5Q565.0 657 591.5 617.5Q618.0 578 618.0 523V513Q618.0 465 600.0 434.5Q582.0 404 557.5 387.5Q533.0 371 511.0 364V346Q533.0 340 559.0 323.5Q585.0 307 603.5 276.0Q622.0 245 622.0 195V185Q622.0 127 595.0 85.5Q568.0 44 520.5 22.0Q473.0 0 410.0 0ZM270.0 120H394.0Q437.0 120 463.5 141.0Q490.0 162 490.0 201V211Q490.0 250 464.0 271.0Q438.0 292 394.0 292H270.0ZM270.0 412H392.0Q433.0 412 459.5 433.0Q486.0 454 486.0 491V501Q486.0 539 460.0 559.5Q434.0 580 392.0 580H270.0ZM913.0 -8Q855.0 -8 811.5 18.5Q768.0 45 744.0 92.0Q720.0 139 720.0 200V496H846.0V210Q846.0 154 873.5 126.0Q901.0 98 952.0 98Q1010.0 98 1042.0 136.5Q1074.0 175 1074.0 244V496H1200.0V0H1076.0V65H1058.0Q1046.0 40 1013.0 16.0Q980.0 -8 913.0 -8ZM1330.0 0V496H1456.0V0ZM1393.0 554Q1359.0 554 1335.5 576.0Q1312.0 598 1312.0 634Q1312.0 670 1335.5 692.0Q1359.0 714 1393.0 714Q1428.0 714 1451.0 692.0Q1474.0 670 1474.0 634Q1474.0 598 1451.0 576.0Q1428.0 554 1393.0 554ZM1586.0 0V700H1712.0V0ZM2042.0 -14Q1983.0 -14 1931.5 15.5Q1880.0 45 1849.0 102.0Q1818.0 159 1818.0 240V256Q1818.0 337 1849.0 394.0Q1880.0 451 1931.0 480.5Q1982.0 510 2042.0 510Q2087.0 510 2117.5 499.5Q2148.0 489 2167.0 473.0Q2186.0 457 2196.0 439H2214.0V700H2340.0V0H2216.0V60H2198.0Q2181.0 32 2145.5 9.0Q2110.0 -14 2042.0 -14ZM2080.0 96Q2138.0 96 2177.0 133.5Q2216.0 171 2216.0 243V253Q2216.0 325 2177.5 362.5Q2139.0 400 2080.0 400Q2022.0 400 1983.0 362.5Q1944.0 325 1944.0 253V243Q1944.0 171 1983.0 133.5Q2022.0 96 2080.0 96Z" fill="#ece7da"/><path d="M2466.0 0V700H2711.0L2832.0 90H2850.0L2971.0 700H3216.0V0H3088.0V603H3070.0L2950.0 0H2732.0L2612.0 603H2594.0V0ZM3496.0 -14Q3443.0 -14 3401.0 4.5Q3359.0 23 3334.5 58.5Q3310.0 94 3310.0 145Q3310.0 196 3334.5 230.5Q3359.0 265 3402.5 282.5Q3446.0 300 3502.0 300H3638.0V328Q3638.0 363 3616.0 385.5Q3594.0 408 3546.0 408Q3499.0 408 3476.0 386.5Q3453.0 365 3446.0 331L3330.0 370Q3342.0 408 3368.5 439.5Q3395.0 471 3439.5 490.5Q3484.0 510 3548.0 510Q3646.0 510 3703.0 461.0Q3760.0 412 3760.0 319V134Q3760.0 104 3788.0 104H3828.0V0H3744.0Q3707.0 0 3683.0 18.0Q3659.0 36 3659.0 66V67H3640.0Q3636.0 55 3622.0 35.5Q3608.0 16 3578.0 1.0Q3548.0 -14 3496.0 -14ZM3518.0 88Q3571.0 88 3604.5 117.5Q3638.0 147 3638.0 196V206H3511.0Q3476.0 206 3456.0 191.0Q3436.0 176 3436.0 149Q3436.0 122 3457.0 105.0Q3478.0 88 3518.0 88ZM4100.0 0Q4051.0 0 4020.5 30.5Q3990.0 61 3990.0 112V392H3866.0V496H3990.0V650H4116.0V496H4252.0V392H4116.0V134Q4116.0 104 4144.0 104H4240.0V0ZM4582.0 -14Q4508.0 -14 4451.5 17.5Q4395.0 49 4363.5 106.5Q4332.0 164 4332.0 242V254Q4332.0 332 4363.0 389.5Q4394.0 447 4450.0 478.5Q4506.0 510 4580.0 510Q4653.0 510 4707.0 477.5Q4761.0 445 4791.0 387.5Q4821.0 330 4821.0 254V211H4460.0Q4462.0 160 4498.0 128.0Q4534.0 96 4586.0 96Q4639.0 96 4664.0 119.0Q4689.0 142 4702.0 170L4805.0 116Q4791.0 90 4764.5 59.5Q4738.0 29 4694.0 7.5Q4650.0 -14 4582.0 -14ZM4461.0 305H4693.0Q4689.0 348 4658.5 374.0Q4628.0 400 4579.0 400Q4528.0 400 4498.0 374.0Q4468.0 348 4461.0 305Z" fill="#e8782f"/></g>
</svg>
